<svg xmlns="http://www.w3.org/2000/svg" width="139.79" height="220" viewBox="0 0 139.79 220">
  <defs>
    <style>
      .cls-1 {
        fill: #fff;
      }
    </style>
  </defs>
  <title>bolt</title>
  <g id="Layer_2" data-name="Layer 2">
    <g id="Layer_1-2" data-name="Layer 1">
      <path class="cls-1" d="M21.47,220,41,150.94s1.52-4.94.52-6.94-5.13-2-5.13-2H3.2a3.29,3.29,0,0,1-2.73-2,3.77,3.77,0,0,1-.1-3.5L45,7.18A8.24,8.24,0,0,1,48.47,2a11.45,11.45,0,0,1,5.78-2H135.4s3.07,0,4.07,2-.71,5.21-.71,5.21L95.47,91s-2,4-1,6,5,2,5,2h27.31s3.69,0,3.69,2-3.91,6.47-3.91,6.47Z"/>
    </g>
  </g>
</svg>
